{"title":"Macklemore &amp; Ryan Lewis Ft. SchoolBoy Q, Hollis - White Wall","uid":8920786,"size":236869499,"categoryP":"video","categoryS":"music_videos","magnet":"?xt=urn:btih:0646eebe4d244fb4b60868d663b63e6960a4fa95&amp;dn=Macklemore+%26amp%3B+Ryan+Lewis+Ft.+SchoolBoy+Q%2C+Hollis+-+White+Wall&amp;tr=udp%3A%2F%2Ftracker.openbittorrent.com%3A80&amp;tr=udp%3A%2F%2Fopen.demonii.com%3A1337&amp;tr=udp%3A%2F%2Ftracker.coppersurfer.tk%3A6969&amp;tr=udp%3A%2F%2Fexodus.desync.com%3A6969","seeders":1,"leechers":1,"uploader":"Sbyky","files":1,"time":1379205070,"description":"[IMG]http://yuq.me/users/18/139/2cx9spiuGk.png[/IMG]\n\nGeneral\nComplete name                            : Macklemore &amp; Ryan Lewis Ft. SchoolBoy Q, Hollis - White Walls [Music Video] 1080p [Sbyky].mp4\nFormat                                   : MPEG-4\nFormat profile                           : Base Media / Version 2\nCodec ID                                 : mp42\nFile size                                : 226 MiB\nDuration                                 : 6mn 11s\nOverall bit rate mode                    : Variable\nOverall bit rate                         : 5 104 Kbps\nEncoded date                             : UTC 2013-09-08 18:45:47\nTagged date                              : UTC 2013-09-08 18:45:47\n\nVideo\nID                                       : 1\nFormat                                   : AVC\nFormat/Info                              : Advanced Video Codec\nFormat profile                           : &lt;a class=&quot;__cf_email__&quot; href=&quot;/cdn-cgi/l/email-protection&quot; data-cfemail=&quot;3e765759567e720a100e&quot;&gt;[email&amp;#160;protected]&lt;/a&gt;&lt;script cf-hash='f9e31' type=&quot;text/javascript&quot;&gt;\n/* &lt;![CDATA[ */!function(){try{var t=&quot;currentScript&quot;in document?document.currentScript:function(){for(var t=document.getElementsByTagName(&quot;script&quot;),e=t.length;e--;)if(t[e].getAttribute(&quot;cf-hash&quot;))return t[e]}();if(t&amp;&amp;t.previousSibling){var e,r,n,i,c=t.previousSibling,a=c.getAttribute(&quot;data-cfemail&quot;);if(a){for(e=&quot;&quot;,r=parseInt(a.substr(0,2),16),n=2;a.length-n;n+=2)i=parseInt(a.substr(n,2),16)^r,e+=String.fromCharCode(i);e=document.createTextNode(e),c.parentNode.replaceChild(e,c)}}}catch(u){}}();/* ]]&gt; */&lt;/script&gt;\nFormat settings, CABAC                   : Yes\nFormat settings, ReFrames                : 1 frame\nCodec ID                                 : avc1\nCodec ID/Info                            : Advanced Video Coding\nDuration                                 : 6mn 11s\nBit rate                                 : 4 909 Kbps\nMaximum bit rate                         : 13.4 Mbps\nWidth                                    : 1 920 pixels\nHeight                                   : 1 080 pixels\nDisplay aspect ratio                     : 16:9\nFrame rate mode                          : Constant\nFrame rate                               : 23.976 fps\nColor space                              : YUV\nChroma subsampling                       : 4:2:0\nBit depth                                : 8 bits\nScan type                                : Progressive\nBits/(Pixel*Frame)                       : 0.099\nStream size                              : 217 MiB (96%)\nTagged date                              : UTC 2013-09-08 18:46:09\n\nAudio\nID                                       : 2\nFormat                                   : AAC\nFormat/Info                              : Advanced Audio Codec\nFormat profile                           : LC\nCodec ID                                 : 40\nDuration                                 : 6mn 11s\nBit rate mode                            : Variable\nBit rate                                 : 192 Kbps\nMaximum bit rate                         : 201 Kbps\nChannel(s)                               : 2 channels\nChannel positions                        : Front: L R\nSampling rate                            : 44.1 KHz\nCompression mode                         : Lossy\nStream size                              : 8.50 MiB (4%)\nTitle                                    : IsoMedia File Produced by Google, 5-11-2011\nEncoded date                             : UTC 2013-09-08 18:46:00\nTagged date                              : UTC 2013-09-08 18:46:09\n\nShared By Sbyky\n[IMG]http://yuq.me/users/18/139/0aq32UMZvX.gif[/IMG]\n[IMG]http://yuq.me/users/18/139/bQg62viaEG.gif[/IMG]","torrent":{"xt":"urn:btih:0646eebe4d244fb4b60868d663b63e6960a4fa95","amp;dn":"Macklemore+%26amp%3B+Ryan+Lewis+Ft.+SchoolBoy+Q%2C+Hollis+-+White+Wall","amp;tr":["udp%3A%2F%2Ftracker.openbittorrent.com%3A80","udp%3A%2F%2Fopen.demonii.com%3A1337","udp%3A%2F%2Ftracker.coppersurfer.tk%3A6969","udp%3A%2F%2Fexodus.desync.com%3A6969"],"infoHash":"0646eebe4d244fb4b60868d663b63e6960a4fa95","infoHashBuffer":{"type":"Buffer","data":[6,70,238,190,77,36,79,180,182,8,104,214,99,182,62,105,96,164,250,149]},"announce":[],"urlList":[]}}